<?xml version="1.0" encoding="UTF-8" standalone="no"?>
<!-- Created with Inkscape (http://www.inkscape.org/) -->

<svg
   width="32"
   height="64"
   viewBox="0 0 8.466672 16.933333"
   version="1.1"
   id="svg5"
   xml:space="preserve"
   inkscape:version="1.2.2 (732a01da63, 2022-12-09)"
   sodipodi:docname="BC_Bottle_Honey.svg"
   xmlns:inkscape="http://www.inkscape.org/namespaces/inkscape"
   xmlns:sodipodi="http://sodipodi.sourceforge.net/DTD/sodipodi-0.dtd"
   xmlns="http://www.w3.org/2000/svg"
   xmlns:svg="http://www.w3.org/2000/svg"><sodipodi:namedview
     id="namedview7"
     pagecolor="#ffffff"
     bordercolor="#000000"
     borderopacity="0.25"
     inkscape:showpageshadow="2"
     inkscape:pageopacity="0.0"
     inkscape:pagecheckerboard="0"
     inkscape:deskcolor="#d1d1d1"
     inkscape:document-units="mm"
     showgrid="false"
     inkscape:zoom="5.9081369"
     inkscape:cx="34.274764"
     inkscape:cy="27.250553"
     inkscape:window-width="1920"
     inkscape:window-height="1009"
     inkscape:window-x="-8"
     inkscape:window-y="-8"
     inkscape:window-maximized="1"
     inkscape:current-layer="layer1" /><defs
     id="defs2" /><g
     inkscape:label="Layer 1"
     inkscape:groupmode="layer"
     id="layer1"><path
       style="fill:#ffffff;stroke:#000000;stroke-width:0.13;stroke-linecap:round;stroke-linejoin:round;stroke-dasharray:none"
       d="M 3.4458988,1.8630813 C 3.3166675,2.2292035 3.0848303,5.1878322 2.7411139,6.809079 l -0.8269821,1.6124139 0.093551,7.6501181 0.6159274,0.465858 3.5785891,-0.0056 0.654962,-0.523292 L 6.7711493,8.334053 5.8399713,6.7406712 5.1878236,1.8253568 Z"
       id="path2516"
       sodipodi:nodetypes="ccccccccccc"
       inkscape:label="body" /><path
       style="fill:#000000;fill-opacity:1;stroke:#000000;stroke-width:0.1;stroke-linecap:round;stroke-linejoin:round;stroke-dasharray:none"
       d="M 3.2691496,3.3363238 5.3515529,3.291541 5.7993816,6.7622133 6.7622133,8.2848311 6.8517793,16.009876 6.2024275,16.569662 2.5974065,16.547271 1.9928377,16.07705 1.903272,8.4415711 2.776538,6.8069962 Z"
       id="path6682" /><path
       style="fill:#ffffff;stroke:#000000;stroke-width:0.13;stroke-linecap:round;stroke-linejoin:round;stroke-dasharray:none"
       d="M 5.1705448,1.8304069 5.2903301,1.6018123 5.1073185,1.4082847 c 0,0 0.1673646,-0.089535 0.1726225,-0.2778037 C 5.2851986,0.94221135 5.198293,0.68071173 4.9878051,0.62772943 4.7773162,0.5747474 3.9078841,0.50336123 3.621536,0.63667647 3.3351884,0.7699921 3.2841777,0.90987946 3.3031105,1.0752727 c 0.018933,0.1653932 0.2267932,0.3125104 0.2267932,0.3125104 0,0 -0.2614995,0.086907 -0.2641285,0.1810401 -0.00262,0.094137 0.1803826,0.2876622 0.1803826,0.2876622 z"
       id="path2520"
       inkscape:label="head"
       sodipodi:nodetypes="cccsssscccc" /><path
       style="fill:#ffffff;stroke:#000000;stroke-width:0.13;stroke-linecap:round;stroke-linejoin:round;stroke-dasharray:none"
       id="path2522"
       sodipodi:type="arc"
       sodipodi:cx="4.2781601"
       sodipodi:cy="0.8198688"
       sodipodi:rx="0.87108624"
       sodipodi:ry="0.2001144"
       sodipodi:start="5.6822308"
       sodipodi:end="5.6798802"
       sodipodi:open="true"
       sodipodi:arc-type="arc"
       d="M 4.9966288,0.70671812 A 0.87108624,0.2001144 0 0 1 4.7711205,0.98485589 0.87108624,0.2001144 0 0 1 3.5602708,0.9332134 0.87108624,0.2001144 0 0 1 3.7843559,0.65501493 0.87108624,0.2001144 0 0 1 4.995469,0.70633046"
       inkscape:label="cap"
       transform="rotate(-0.46640579)" /><path
       style="fill:#ffffff;stroke:#000000;stroke-width:0.13;stroke-linecap:round;stroke-linejoin:round;stroke-dasharray:none;fill-opacity:1"
       d="m 6.7449157,8.3208755 -4.8053566,1.6856665 0.055416,4.369945 4.8132734,-1.646646 z"
       id="path3983"
       sodipodi:nodetypes="ccccc" /><g
       id="g5954"
       style="stroke-width:0.1;stroke-dasharray:none"
       transform="matrix(1.2079993,0,0,1.2079993,-1.0058954,-2.3656467)"><path
         sodipodi:type="star"
         style="fill:#ffffff;fill-opacity:1;stroke:#000000;stroke-width:0.383797;stroke-linecap:round;stroke-linejoin:round;stroke-dasharray:none"
         id="path5917"
         inkscape:flatsided="true"
         sodipodi:sides="6"
         sodipodi:cx="3.2243667"
         sodipodi:cy="10.591149"
         sodipodi:r1="2.0875735"
         sodipodi:r2="1.0437868"
         sodipodi:arg1="0.61775573"
         sodipodi:arg2="1.1413545"
         inkscape:rounded="0"
         inkscape:randomized="0"
         d="M 4.9261157,11.800287 3.0280974,12.669476 1.3263484,11.460338 1.5226176,9.3820118 3.4206359,8.5128227 5.122385,9.7219602 Z"
         inkscape:transform-center-x="-0.023717246"
         inkscape:transform-center-y="-0.11363789"
         transform="matrix(0.23706975,0.10810454,-0.10810454,0.23706975,3.9817995,8.0095091)" /><path
         sodipodi:type="star"
         style="fill:#ffffff;fill-opacity:1;stroke:#000000;stroke-width:0.383797;stroke-linecap:round;stroke-linejoin:round;stroke-dasharray:none"
         id="path5919"
         inkscape:flatsided="true"
         sodipodi:sides="6"
         sodipodi:cx="3.2243667"
         sodipodi:cy="10.591149"
         sodipodi:r1="2.0875735"
         sodipodi:r2="1.0437868"
         sodipodi:arg1="0.61775573"
         sodipodi:arg2="1.1413545"
         inkscape:rounded="0"
         inkscape:randomized="0"
         d="M 4.9261157,11.800287 3.0280974,12.669476 1.3263484,11.460338 1.5226176,9.3820118 3.4206359,8.5128227 5.122385,9.7219602 Z"
         inkscape:transform-center-x="-0.023716568"
         inkscape:transform-center-y="-0.11363829"
         transform="matrix(0.23706975,0.10810454,-0.10810454,0.23706975,4.8088872,7.5404732)" /><path
         sodipodi:type="star"
         style="fill:#ffffff;fill-opacity:1;stroke:#000000;stroke-width:0.383797;stroke-linecap:round;stroke-linejoin:round;stroke-dasharray:none"
         id="path5921"
         inkscape:flatsided="true"
         sodipodi:sides="6"
         sodipodi:cx="3.2243667"
         sodipodi:cy="10.591149"
         sodipodi:r1="2.0875735"
         sodipodi:r2="1.0437868"
         sodipodi:arg1="0.61775573"
         sodipodi:arg2="1.1413545"
         inkscape:rounded="0"
         inkscape:randomized="0"
         d="M 4.9261157,11.800287 3.0280974,12.669476 1.3263484,11.460338 1.5226176,9.3820118 3.4206359,8.5128227 5.122385,9.7219602 Z"
         inkscape:transform-center-x="-0.023716744"
         inkscape:transform-center-y="-0.11363813"
         transform="matrix(0.23706975,0.10810454,-0.10810454,0.23706975,5.6220899,8.04213)" /><path
         sodipodi:type="star"
         style="fill:#ffffff;fill-opacity:1;stroke:#000000;stroke-width:0.383797;stroke-linecap:round;stroke-linejoin:round;stroke-dasharray:none"
         id="path5923"
         inkscape:flatsided="true"
         sodipodi:sides="6"
         sodipodi:cx="3.2243667"
         sodipodi:cy="10.591149"
         sodipodi:r1="2.0875735"
         sodipodi:r2="1.0437868"
         sodipodi:arg1="0.61775573"
         sodipodi:arg2="1.1413545"
         inkscape:rounded="0"
         inkscape:randomized="0"
         d="M 4.9261157,11.800287 3.0280974,12.669476 1.3263484,11.460338 1.5226176,9.3820118 3.4206359,8.5128227 5.122385,9.7219602 Z"
         inkscape:transform-center-x="-0.023717155"
         inkscape:transform-center-y="-0.1136379"
         transform="matrix(0.23706975,0.10810454,-0.10810454,0.23706975,5.6205678,9.0086298)" /><path
         sodipodi:type="star"
         style="fill:#ffffff;fill-opacity:1;stroke:#000000;stroke-width:0.383797;stroke-linecap:round;stroke-linejoin:round;stroke-dasharray:none"
         id="path5925"
         inkscape:flatsided="true"
         sodipodi:sides="6"
         sodipodi:cx="3.2243667"
         sodipodi:cy="10.591149"
         sodipodi:r1="2.0875735"
         sodipodi:r2="1.0437868"
         sodipodi:arg1="0.61775573"
         sodipodi:arg2="1.1413545"
         inkscape:rounded="0"
         inkscape:randomized="0"
         d="M 4.9261157,11.800287 3.0280974,12.669476 1.3263484,11.460338 1.5226176,9.3820118 3.4206359,8.5128227 5.122385,9.7219602 Z"
         inkscape:transform-center-x="-0.023716709"
         inkscape:transform-center-y="-0.11363824"
         transform="matrix(0.23706975,0.10810454,-0.10810454,0.23706975,4.7973946,8.5048925)" /><path
         sodipodi:type="star"
         style="fill:#ffffff;fill-opacity:1;stroke:#000000;stroke-width:0.383797;stroke-linecap:round;stroke-linejoin:round;stroke-dasharray:none"
         id="path5927"
         inkscape:flatsided="true"
         sodipodi:sides="6"
         sodipodi:cx="3.2243667"
         sodipodi:cy="10.591149"
         sodipodi:r1="2.0875735"
         sodipodi:r2="1.0437868"
         sodipodi:arg1="0.61775573"
         sodipodi:arg2="1.1413545"
         inkscape:rounded="0"
         inkscape:randomized="0"
         d="M 4.9261157,11.800287 3.0280974,12.669476 1.3263484,11.460338 1.5226176,9.3820118 3.4206359,8.5128227 5.122385,9.7219602 Z"
         inkscape:transform-center-x="-0.023716727"
         inkscape:transform-center-y="-0.11363819"
         transform="matrix(0.23706975,0.10810454,-0.10810454,0.23706975,3.9818609,8.9812899)" /><path
         sodipodi:type="star"
         style="fill:#ffffff;fill-opacity:1;stroke:#000000;stroke-width:0.383797;stroke-linecap:round;stroke-linejoin:round;stroke-dasharray:none"
         id="path5929"
         inkscape:flatsided="true"
         sodipodi:sides="6"
         sodipodi:cx="3.2243667"
         sodipodi:cy="10.591149"
         sodipodi:r1="2.0875735"
         sodipodi:r2="1.0437868"
         sodipodi:arg1="0.61775573"
         sodipodi:arg2="1.1413545"
         inkscape:rounded="0"
         inkscape:randomized="0"
         d="M 4.9261157,11.800287 3.0280974,12.669476 1.3263484,11.460338 1.5226176,9.3820118 3.4206359,8.5128227 5.122385,9.7219602 Z"
         inkscape:transform-center-x="-0.023716741"
         inkscape:transform-center-y="-0.11363808"
         transform="matrix(0.23706975,0.10810454,-0.10810454,0.23706975,4.78463,9.4480672)" /></g></g></svg>
