<?xml version="1.0" encoding="UTF-8" standalone="no"?>
<!-- Created with Inkscape (http://www.inkscape.org/) -->

<svg
   width="32"
   height="64"
   viewBox="0 0 8.466672 16.933333"
   version="1.1"
   id="svg5"
   xml:space="preserve"
   inkscape:version="1.2.2 (732a01da63, 2022-12-09)"
   sodipodi:docname="BC_Bottle_Dark.svg"
   xmlns:inkscape="http://www.inkscape.org/namespaces/inkscape"
   xmlns:sodipodi="http://sodipodi.sourceforge.net/DTD/sodipodi-0.dtd"
   xmlns="http://www.w3.org/2000/svg"
   xmlns:svg="http://www.w3.org/2000/svg"><sodipodi:namedview
     id="namedview7"
     pagecolor="#ffffff"
     bordercolor="#000000"
     borderopacity="0.25"
     inkscape:showpageshadow="2"
     inkscape:pageopacity="0.0"
     inkscape:pagecheckerboard="0"
     inkscape:deskcolor="#d1d1d1"
     inkscape:document-units="mm"
     showgrid="false"
     inkscape:zoom="4.1776837"
     inkscape:cx="36.742849"
     inkscape:cy="40.931773"
     inkscape:window-width="1920"
     inkscape:window-height="1009"
     inkscape:window-x="-8"
     inkscape:window-y="-8"
     inkscape:window-maximized="1"
     inkscape:current-layer="layer1" /><defs
     id="defs2" /><g
     inkscape:label="Layer 1"
     inkscape:groupmode="layer"
     id="layer1"><path
       style="fill:#ffffff;stroke:#000000;stroke-width:0.13;stroke-linecap:round;stroke-linejoin:round;stroke-dasharray:none"
       d="M 3.4458988,1.8630813 C 3.3166675,2.2292035 3.0848303,5.1878322 2.7411139,6.809079 l -0.8269821,1.6124139 0.093551,7.6501181 0.6159274,0.465858 3.5785891,-0.0056 0.654962,-0.523292 L 6.7711493,8.334053 5.8399713,6.7406712 5.1878236,1.8253568 Z"
       id="path2516"
       sodipodi:nodetypes="ccccccccccc"
       inkscape:label="body" /><path
       style="fill:#000000;fill-opacity:1;stroke:#000000;stroke-width:0.1;stroke-linecap:round;stroke-linejoin:round;stroke-dasharray:none"
       d="M 3.2691496,3.3363238 5.3515529,3.291541 5.7993816,6.7622133 6.7622133,8.2848311 6.8517793,16.009876 6.2024275,16.569662 2.5974065,16.547271 1.9928377,16.07705 1.903272,8.4415711 2.776538,6.8069962 Z"
       id="path6682" /><path
       style="fill:#ffffff;stroke:#000000;stroke-width:0.13;stroke-linecap:round;stroke-linejoin:round;stroke-dasharray:none"
       d="M 5.1705448,1.8304069 5.2903301,1.6018123 5.1073185,1.4082847 c 0,0 0.1673646,-0.089535 0.1726225,-0.2778037 C 5.2851986,0.94221135 5.198293,0.68071173 4.9878051,0.62772943 4.7773162,0.5747474 3.9078841,0.50336123 3.621536,0.63667647 3.3351884,0.7699921 3.2841777,0.90987946 3.3031105,1.0752727 c 0.018933,0.1653932 0.2267932,0.3125104 0.2267932,0.3125104 0,0 -0.2614995,0.086907 -0.2641285,0.1810401 -0.00262,0.094137 0.1803826,0.2876622 0.1803826,0.2876622 z"
       id="path2520"
       inkscape:label="head"
       sodipodi:nodetypes="cccsssscccc" /><path
       style="fill:#ffffff;stroke:#000000;stroke-width:0.13;stroke-linecap:round;stroke-linejoin:round;stroke-dasharray:none"
       id="path2522"
       sodipodi:type="arc"
       sodipodi:cx="4.2781601"
       sodipodi:cy="0.8198688"
       sodipodi:rx="0.87108624"
       sodipodi:ry="0.2001144"
       sodipodi:start="5.6822308"
       sodipodi:end="5.6798802"
       sodipodi:open="true"
       sodipodi:arc-type="arc"
       d="M 4.9966288,0.70671812 A 0.87108624,0.2001144 0 0 1 4.7711205,0.98485589 0.87108624,0.2001144 0 0 1 3.5602708,0.9332134 0.87108624,0.2001144 0 0 1 3.7843559,0.65501493 0.87108624,0.2001144 0 0 1 4.995469,0.70633046"
       inkscape:label="cap"
       transform="rotate(-0.46640579)" /><path
       style="fill:#ffffff;stroke:#000000;stroke-width:0.13;stroke-linecap:round;stroke-linejoin:round;stroke-dasharray:none;fill-opacity:1"
       d="m 6.7449157,8.3208755 -4.8053566,1.6856665 0.055416,4.369945 4.8132734,-1.646646 z"
       id="path3983"
       sodipodi:nodetypes="ccccc" /><path
       style="fill:#000000;fill-opacity:1;stroke:#000000;stroke-width:0.131152;stroke-linecap:round;stroke-linejoin:round;stroke-dasharray:none"
       d="M 4.3888845,9.4554717 3.4785107,11.041283 v 1.32151 c 0,0 0.4585047,-0.318436 0.6787565,0.283585 0.2202517,0.602022 0.3309523,0.566907 0.3309523,0.566907 0.1612852,-0.554274 0.1702284,-1.004566 1.0900246,-0.875131 L 5.5195092,11.0266 c 0,0 -0.7341728,-0.381769 -0.939741,-1.0425273 C 4.3742017,9.3233227 4.388885,9.4554755 4.388885,9.4554755 Z"
       id="path12066"
       sodipodi:nodetypes="cccscccscc" /><path
       style="fill:#ffffff;fill-opacity:1;stroke:#000000;stroke-width:0.0989275;stroke-linecap:round;stroke-linejoin:round;stroke-dasharray:none"
       d="M 4.3953915,9.9743907 3.7087029,11.170557 v 0.868055 c 0,0 0.5355218,-0.138537 0.637749,0.334071 0.048579,0.224588 0.056698,0.229931 0.056698,0.229931 0,0 -0.018834,-0.313418 0.4684935,-0.501705 0.4873275,-0.188285 0.3984823,-0.150302 0.3984823,-0.150302 L 5.2482142,11.15948 c 0,0 -0.5537815,-0.287966 -0.7088401,-0.78637 C 4.3843164,9.8747112 4.3953919,9.9743927 4.3953919,9.9743927 Z"
       id="path12056"
       sodipodi:nodetypes="cccscsccscc" /><path
       style="fill:#ffffff;fill-opacity:1;stroke:#000000;stroke-width:0.0960766;stroke-linecap:round;stroke-linejoin:round;stroke-dasharray:none"
       d="m 4.0477497,11.006875 0.139034,0.836353 0.1853795,-0.887041"
       id="path12058"
       sodipodi:nodetypes="ccc" /><path
       style="fill:#ffffff;fill-opacity:1;stroke:#000000;stroke-width:0.0960766;stroke-linecap:round;stroke-linejoin:round;stroke-dasharray:none"
       d="m 4.6585704,10.956187 0.00927,0.887041"
       id="path12060" /><path
       style="fill:#ffffff;fill-opacity:1;stroke:#000000;stroke-width:0.1;stroke-linecap:round;stroke-linejoin:round;stroke-dasharray:none"
       d="M 4.6409502,10.56654 5.2922188,9.7329142 4.9535591,10.905199 Z"
       id="path12062" /><path
       style="fill:#ffffff;fill-opacity:1;stroke:#000000;stroke-width:0.1;stroke-linecap:round;stroke-linejoin:round;stroke-dasharray:none"
       d="M 4.0814119,10.542155 3.289182,9.8411179 3.835726,10.932096 Z"
       id="path12064"
       inkscape:transform-center-x="-0.14327531"
       inkscape:transform-center-y="-0.026054973" /></g></svg>
