<?xml version="1.0" encoding="UTF-8" standalone="no"?>
<!-- Created with Inkscape (http://www.inkscape.org/) -->

<svg
   width="32"
   height="64"
   viewBox="0 0 8.466672 16.933333"
   version="1.1"
   id="svg5"
   xml:space="preserve"
   inkscape:version="1.2.2 (732a01da63, 2022-12-09)"
   sodipodi:docname="BC_Bottle_Radio.svg"
   xmlns:inkscape="http://www.inkscape.org/namespaces/inkscape"
   xmlns:sodipodi="http://sodipodi.sourceforge.net/DTD/sodipodi-0.dtd"
   xmlns="http://www.w3.org/2000/svg"
   xmlns:svg="http://www.w3.org/2000/svg"><sodipodi:namedview
     id="namedview7"
     pagecolor="#ffffff"
     bordercolor="#000000"
     borderopacity="0.25"
     inkscape:showpageshadow="2"
     inkscape:pageopacity="0.0"
     inkscape:pagecheckerboard="0"
     inkscape:deskcolor="#d1d1d1"
     inkscape:document-units="mm"
     showgrid="false"
     inkscape:zoom="8.3553674"
     inkscape:cx="23.757184"
     inkscape:cy="31.71614"
     inkscape:window-width="1920"
     inkscape:window-height="1009"
     inkscape:window-x="-8"
     inkscape:window-y="-8"
     inkscape:window-maximized="1"
     inkscape:current-layer="layer1" /><defs
     id="defs2" /><g
     inkscape:label="Layer 1"
     inkscape:groupmode="layer"
     id="layer1"><path
       style="fill:#ffffff;stroke:#000000;stroke-width:0.13;stroke-linecap:round;stroke-linejoin:round;stroke-dasharray:none"
       d="M 3.4458988,1.8630813 C 3.3166675,2.2292035 3.0848303,5.1878322 2.7411139,6.809079 l -0.8269821,1.6124139 0.093551,7.6501181 0.6159274,0.465858 3.5785891,-0.0056 0.654962,-0.523292 L 6.7711493,8.334053 5.8399713,6.7406712 5.1878236,1.8253568 Z"
       id="path2516"
       sodipodi:nodetypes="ccccccccccc"
       inkscape:label="body" /><path
       style="fill:#000000;fill-opacity:1;stroke:#000000;stroke-width:0.1;stroke-linecap:round;stroke-linejoin:round;stroke-dasharray:none"
       d="M 3.2691496,3.3363238 5.3515529,3.291541 5.7993816,6.7622133 6.7622133,8.2848311 6.8517793,16.009876 6.2024275,16.569662 2.5974065,16.547271 1.9928377,16.07705 1.903272,8.4415711 2.776538,6.8069962 Z"
       id="path6682" /><path
       style="fill:#ffffff;stroke:#000000;stroke-width:0.13;stroke-linecap:round;stroke-linejoin:round;stroke-dasharray:none"
       d="M 5.1705448,1.8304069 5.2903301,1.6018123 5.1073185,1.4082847 c 0,0 0.1673646,-0.089535 0.1726225,-0.2778037 C 5.2851986,0.94221135 5.198293,0.68071173 4.9878051,0.62772943 4.7773162,0.5747474 3.9078841,0.50336123 3.621536,0.63667647 3.3351884,0.7699921 3.2841777,0.90987946 3.3031105,1.0752727 c 0.018933,0.1653932 0.2267932,0.3125104 0.2267932,0.3125104 0,0 -0.2614995,0.086907 -0.2641285,0.1810401 -0.00262,0.094137 0.1803826,0.2876622 0.1803826,0.2876622 z"
       id="path2520"
       inkscape:label="head"
       sodipodi:nodetypes="cccsssscccc" /><path
       style="fill:#ffffff;stroke:#000000;stroke-width:0.13;stroke-linecap:round;stroke-linejoin:round;stroke-dasharray:none"
       id="path2522"
       sodipodi:type="arc"
       sodipodi:cx="4.2781601"
       sodipodi:cy="0.8198688"
       sodipodi:rx="0.87108624"
       sodipodi:ry="0.2001144"
       sodipodi:start="5.6822308"
       sodipodi:end="5.6798802"
       sodipodi:open="true"
       sodipodi:arc-type="arc"
       d="M 4.9966288,0.70671812 A 0.87108624,0.2001144 0 0 1 4.7711205,0.98485589 0.87108624,0.2001144 0 0 1 3.5602708,0.9332134 0.87108624,0.2001144 0 0 1 3.7843559,0.65501493 0.87108624,0.2001144 0 0 1 4.995469,0.70633046"
       inkscape:label="cap"
       transform="rotate(-0.46640579)" /><path
       style="fill:#ffffff;stroke:#000000;stroke-width:0.13;stroke-linecap:round;stroke-linejoin:round;stroke-dasharray:none;fill-opacity:1"
       d="m 6.7449157,8.3208755 -4.8053566,1.6856665 0.055416,4.369945 4.8132734,-1.646646 z"
       id="path3983"
       sodipodi:nodetypes="ccccc" /><path
       style="fill:#ffffff;fill-opacity:1;stroke:#000000;stroke-width:0.1;stroke-linecap:round;stroke-linejoin:round;stroke-dasharray:none"
       id="path13652"
       sodipodi:type="arc"
       sodipodi:cx="4.4111128"
       sodipodi:cy="11.307675"
       sodipodi:rx="1.4106605"
       sodipodi:ry="1.4106605"
       sodipodi:start="5.6822308"
       sodipodi:end="5.6798802"
       sodipodi:open="true"
       sodipodi:arc-type="arc"
       d="M 5.5746203,10.510046 A 1.4106605,1.4106605 0 0 1 5.2094262,12.470714 1.4106605,1.4106605 0 0 1 3.2485435,12.106672 1.4106605,1.4106605 0 0 1 3.611433,10.145576 1.4106605,1.4106605 0 0 1 5.5727422,10.507313" /><path
       style="fill:#ffffff;fill-opacity:1;stroke:#000000;stroke-width:0.1;stroke-linecap:round;stroke-linejoin:round;stroke-dasharray:none"
       id="path13660"
       sodipodi:type="arc"
       sodipodi:cx="4.4111133"
       sodipodi:cy="11.307675"
       sodipodi:rx="0.80510336"
       sodipodi:ry="0.80510336"
       sodipodi:start="5.6822308"
       sodipodi:end="5.6798802"
       sodipodi:open="true"
       sodipodi:arc-type="arc"
       d="M 5.0751595,10.852446 A 0.80510336,0.80510336 0 0 1 4.866733,11.971454 0.80510336,0.80510336 0 0 1 3.7476025,11.763685 0.80510336,0.80510336 0 0 1 3.9547137,10.644433 0.80510336,0.80510336 0 0 1 5.0740876,10.850886" /><path
       style="fill:#ffffff;fill-opacity:1;stroke:#000000;stroke-width:0.1;stroke-linecap:round;stroke-linejoin:round;stroke-dasharray:none"
       d="M 2.8499644,13.094003 5.6840958,9.689879 4.7341075,11.320692 5.8107608,10.291538"
       id="path13656" /><path
       style="fill:#000000;fill-opacity:1;stroke:#000000;stroke-width:0.0223662;stroke-linecap:round;stroke-linejoin:round;stroke-dasharray:none"
       id="path14412"
       sodipodi:type="arc"
       sodipodi:cx="4.4111137"
       sodipodi:cy="11.307675"
       sodipodi:rx="0.17890705"
       sodipodi:ry="0.17890705"
       sodipodi:start="5.6822308"
       sodipodi:end="5.6798802"
       sodipodi:open="true"
       sodipodi:arc-type="arc"
       d="m 4.5586756,11.206516 a 0.17890705,0.17890705 0 0 1 -0.046316,0.248662 0.17890705,0.17890705 0 0 1 -0.248689,-0.04617 0.17890705,0.17890705 0 0 1 0.046023,-0.248716 0.17890705,0.17890705 0 0 1 0.2487431,0.04588" /></g></svg>
