<?xml version="1.0" encoding="UTF-8" standalone="no"?>
<!-- Created with Inkscape (http://www.inkscape.org/) -->

<svg
   width="64"
   height="64"
   viewBox="0 0 16.933333 16.933333"
   version="1.1"
   id="svg5"
   sodipodi:docname="BearClub_Logo.svg"
   inkscape:version="1.2.2 (732a01da63, 2022-12-09)"
   xmlns:inkscape="http://www.inkscape.org/namespaces/inkscape"
   xmlns:sodipodi="http://sodipodi.sourceforge.net/DTD/sodipodi-0.dtd"
   xmlns="http://www.w3.org/2000/svg"
   xmlns:svg="http://www.w3.org/2000/svg">
  <sodipodi:namedview
     id="namedview7"
     pagecolor="#ffffff"
     bordercolor="#000000"
     borderopacity="0.25"
     inkscape:showpageshadow="2"
     inkscape:pageopacity="0.0"
     inkscape:pagecheckerboard="0"
     inkscape:deskcolor="#d1d1d1"
     inkscape:document-units="mm"
     showgrid="false"
     inkscape:zoom="8.3553674"
     inkscape:cx="27.108323"
     inkscape:cy="29.801203"
     inkscape:window-width="1920"
     inkscape:window-height="1009"
     inkscape:window-x="-8"
     inkscape:window-y="-8"
     inkscape:window-maximized="1"
     inkscape:current-layer="layer1" />
  <defs
     id="defs2" />
  <g
     inkscape:label="Layer 1"
     inkscape:groupmode="layer"
     id="layer1">
    <path
       style="fill:#7f7f7f;fill-opacity:1;stroke:#000000;stroke-width:0.303917;stroke-linecap:round;stroke-linejoin:round;stroke-dasharray:none;stroke-opacity:1"
       id="path11435"
       sodipodi:type="arc"
       sodipodi:cx="8.6103859"
       sodipodi:cy="8.5232744"
       sodipodi:rx="7.7578731"
       sodipodi:ry="7.7578731"
       sodipodi:start="5.6822308"
       sodipodi:end="5.6798802"
       sodipodi:open="true"
       sodipodi:arc-type="arc"
       d="M 15.009051,4.1367402 A 7.7578731,7.7578731 0 0 1 13.00068,14.91936 7.7578731,7.7578731 0 0 1 2.2168809,12.917326 7.7578731,7.7578731 0 0 1 4.212578,2.1323527 7.7578731,7.7578731 0 0 1 14.998722,4.1217117" />
    <path
       style="fill:#000000;fill-opacity:1;stroke:#000000;stroke-width:0.270698;stroke-linecap:round;stroke-linejoin:round;stroke-dasharray:none;stroke-opacity:1"
       id="path11433"
       sodipodi:type="arc"
       sodipodi:cx="8.6103859"
       sodipodi:cy="8.5232744"
       sodipodi:rx="6.9099026"
       sodipodi:ry="6.9099026"
       sodipodi:start="5.6822308"
       sodipodi:end="5.6798802"
       sodipodi:open="true"
       sodipodi:arc-type="arc"
       d="M 14.309648,4.6162082 A 6.9099026,6.9099026 0 0 1 12.520801,14.220239 6.9099026,6.9099026 0 0 1 2.9157198,12.437036 6.9099026,6.9099026 0 0 1 4.6932782,2.8309093 6.9099026,6.9099026 0 0 1 14.300448,4.6028223" />
    <path
       style="fill:#ffffff;fill-opacity:1;stroke:#000000;stroke-width:0.25741;stroke-linecap:round;stroke-linejoin:round"
       d="M 14.845839,0.32729447 10.926465,4.2466677 H 8.0445726 L 0.3211019,11.970138 5.0474052,16.696442 12.742058,9.0017899 12.713239,6.0334411 16.632612,2.1140677 Z"
       id="path186"
       sodipodi:nodetypes="ccccccccc"
       inkscape:label="BottleR" />
    <path
       style="fill:#ffffff;fill-opacity:1;stroke:#000000;stroke-width:0.25741;stroke-linecap:round;stroke-linejoin:round"
       d="M 0.292283,2.1428863 4.2116562,6.0622595 V 8.9441521 L 11.935127,16.667622 16.661432,11.941321 8.9667784,4.2466674 5.9984297,4.2754865 2.0790562,0.35611334 Z"
       id="path2940"
       sodipodi:nodetypes="ccccccccc"
       inkscape:label="BottleL" />
    <path
       style="fill:#000000;fill-opacity:1;stroke:#ffffff;stroke-width:0;stroke-linecap:round;stroke-linejoin:round;stroke-dasharray:none;stroke-opacity:1"
       d="M 7.9661448,4.2493833 8.7914043,4.2410433 12.636408,7.8917716 12.721268,8.985337 8.5272396,13.249431 4.0601567,9.1739337 4.2010589,8.0135946 Z"
       id="path3828"
       inkscape:label="Patch"
       sodipodi:nodetypes="cccccccc" />
    <text
       xml:space="preserve"
       style="font-style:normal;font-variant:normal;font-weight:normal;font-stretch:normal;font-size:5.992px;font-family:'Colonna MT';-inkscape-font-specification:'Colonna MT, Normal';font-variant-ligatures:normal;font-variant-caps:normal;font-variant-numeric:normal;font-variant-east-asian:normal;fill:#ffffff;fill-opacity:1;stroke:none;stroke-width:0.441608;stroke-linecap:round;stroke-linejoin:round;stroke-dasharray:none;stroke-opacity:1"
       x="5.7859063"
       y="9.4186897"
       id="text2996"
       inkscape:label="BC"
       transform="scale(0.93309112,1.0717067)"><tspan
         sodipodi:role="line"
         id="tspan2994"
         style="font-style:normal;font-variant:normal;font-weight:normal;font-stretch:normal;font-size:5.992px;font-family:'Colonna MT';-inkscape-font-specification:'Colonna MT, Normal';font-variant-ligatures:normal;font-variant-caps:normal;font-variant-numeric:normal;font-variant-east-asian:normal;fill:#ffffff;fill-opacity:1;stroke:none;stroke-width:0.441608;stroke-dasharray:none;stroke-opacity:1"
         x="5.7859063"
         y="9.4186897">BC</tspan></text>
    <path
       style="fill:#000000;fill-opacity:1;stroke:none;stroke-width:0;stroke-linecap:round;stroke-linejoin:round;stroke-dasharray:none;stroke-opacity:1"
       id="path8040"
       sodipodi:type="arc"
       sodipodi:cx="-0.03985817"
       sodipodi:cy="-1.6887788"
       sodipodi:rx="1.383881"
       sodipodi:ry="0.4988313"
       sodipodi:start="5.6822308"
       sodipodi:end="5.6798802"
       sodipodi:open="true"
       sodipodi:arc-type="arc"
       d="M 1.1015617,-1.9708329 A 1.383881,0.4988313 0 0 1 0.74330028,-1.2775104 1.383881,0.4988313 0 0 1 -1.1803576,-1.4062412 1.383881,0.4988313 0 0 1 -0.82435704,-2.0997151 1.383881,0.4988313 0 0 1 1.0997192,-1.9717993"
       transform="matrix(-0.71116829,0.70302181,-0.67051288,-0.74189789,0,0)"
       inkscape:label="CapL" />
    <path
       style="fill:#000000;fill-opacity:1;stroke:none;stroke-width:0;stroke-linecap:round;stroke-linejoin:round;stroke-dasharray:none;stroke-opacity:1"
       id="path8250"
       sodipodi:type="arc"
       sodipodi:cx="-11.690287"
       sodipodi:cy="10.16348"
       sodipodi:rx="1.3848393"
       sodipodi:ry="0.49917665"
       sodipodi:start="5.6822308"
       sodipodi:end="5.6798802"
       sodipodi:open="true"
       sodipodi:arc-type="arc"
       d="m -10.548076,9.8812303 a 1.3848393,0.49917665 0 0 1 -0.35851,0.6938027 1.3848393,0.49917665 0 0 1 -1.92499,-0.12882 1.3848393,0.49917665 0 0 1 0.356247,-0.693954 1.3848393,0.49917665 0 0 1 1.925409,0.1280043"
       transform="matrix(-0.71750594,-0.69655239,0.72794439,-0.68563618,0,0)"
       inkscape:label="CapR" />
    <path
       style="fill:#000000;fill-opacity:1;stroke:#000000;stroke-width:0.25741;stroke-linecap:round;stroke-linejoin:round;stroke-dasharray:none;stroke-opacity:1"
       d="M 9.3301508,13.817432 11.57992,11.576102"
       id="path8989"
       inkscape:label="f6" />
    <path
       style="fill:#000000;fill-opacity:1;stroke:#000000;stroke-width:0.25741;stroke-linecap:round;stroke-linejoin:round;stroke-dasharray:none;stroke-opacity:1"
       d="m 10.079443,14.739638 2.249769,-2.24133"
       id="path11423"
       inkscape:label="f5" />
    <path
       style="fill:#000000;fill-opacity:1;stroke:#000000;stroke-width:0.25741;stroke-linecap:round;stroke-linejoin:round;stroke-dasharray:none;stroke-opacity:1"
       d="m 11.030467,15.661843 2.24977,-2.24133"
       id="path11425"
       inkscape:label="f4" />
    <path
       style="fill:#000000;fill-opacity:1;stroke:#000000;stroke-width:0.25741;stroke-linecap:round;stroke-linejoin:round;stroke-dasharray:none;stroke-opacity:1"
       d="M 7.6893655,13.846252 5.4395965,11.604921"
       id="path11427"
       inkscape:label="f3" />
    <path
       style="fill:#000000;fill-opacity:1;stroke:#000000;stroke-width:0.25741;stroke-linecap:round;stroke-linejoin:round;stroke-dasharray:none;stroke-opacity:1"
       d="m 6.9400734,14.768457 -2.249769,-2.24133"
       id="path11429"
       inkscape:label="f2" />
    <path
       style="fill:#000000;fill-opacity:1;stroke:#000000;stroke-width:0.25741;stroke-linecap:round;stroke-linejoin:round;stroke-dasharray:none;stroke-opacity:1"
       d="m 5.9890489,15.690663 -2.249769,-2.24133"
       id="path11431"
       inkscape:label="f1" />
    <path
       style="fill:#7f7f7f;fill-opacity:1;stroke:#000000;stroke-width:0;stroke-linecap:round;stroke-linejoin:round;stroke-dasharray:none;stroke-opacity:1"
       d="M 8.5730878,2.0768943 7.9152937,3.4967992 9.3931175,2.5673601 7.6834924,2.5406167 9.1437047,3.5131795 Z"
       id="path12204"
       sodipodi:nodetypes="cccccc"
       inkscape:label="Star" />
    <path
       style="fill:#7f7f7f;fill-opacity:1;stroke:#000000;stroke-width:0;stroke-linecap:round;stroke-linejoin:round;stroke-dasharray:none;stroke-opacity:1"
       d="m 8.5730878,13.717709 -0.6577941,1.419905 1.4778238,-0.929438 -1.7096251,-0.02675 1.4602123,0.972565 z"
       id="path12206"
       sodipodi:nodetypes="cccccc"
       inkscape:label="Star" />
    <path
       style="fill:#7f7f7f;fill-opacity:1;stroke:#000000;stroke-width:0;stroke-linecap:round;stroke-linejoin:round;stroke-dasharray:none;stroke-opacity:1"
       d="M 14.136298,6.9114381 13.478504,8.3313431 14.956327,7.401904 13.246702,7.375161 14.706915,8.3477238 Z"
       id="path12208"
       sodipodi:nodetypes="cccccc"
       inkscape:label="Star" />
    <path
       style="fill:#7f7f7f;fill-opacity:1;stroke:#000000;stroke-width:0;stroke-linecap:round;stroke-linejoin:round;stroke-dasharray:none;stroke-opacity:1"
       d="M 3.0506347,6.9114381 2.3928406,8.3313431 3.8706644,7.401904 2.1610393,7.3751606 3.6212516,8.3477234 Z"
       id="path12210"
       sodipodi:nodetypes="cccccc"
       inkscape:label="Star" />
  </g>
</svg>
